<?xml version="1.0" encoding="UTF-8" standalone="no"?>
<!-- Created with Inkscape (http://www.inkscape.org/) -->

<svg
   xmlns:dc="http://purl.org/dc/elements/1.1/"
   xmlns:cc="http://creativecommons.org/ns#"
   xmlns:rdf="http://www.w3.org/1999/02/22-rdf-syntax-ns#"
   xmlns:svg="http://www.w3.org/2000/svg"
   xmlns="http://www.w3.org/2000/svg"
   xmlns:sodipodi="http://sodipodi.sourceforge.net/DTD/sodipodi-0.dtd"
   xmlns:inkscape="http://www.inkscape.org/namespaces/inkscape"
   width="160"
   height="28"
   viewBox="0 0 160 28"
   version="1.1"
   id="SVGRoot"
   inkscape:version="0.92.5 (2060ec1f9f, 2020-04-08)"
   sodipodi:docname="sikulix.svg">
  <defs
     id="defs4819" />
  <sodipodi:namedview
     id="base"
     pagecolor="#ffffff"
     bordercolor="#666666"
     borderopacity="1.0"
     inkscape:pageopacity="0.0"
     inkscape:pageshadow="2"
     inkscape:zoom="2.56"
     inkscape:cx="158.63084"
     inkscape:cy="-15.980525"
     inkscape:document-units="px"
     inkscape:current-layer="layer1"
     showgrid="false"
     inkscape:window-width="1366"
     inkscape:window-height="705"
     inkscape:window-x="-8"
     inkscape:window-y="-8"
     inkscape:window-maximized="1" />
  <metadata
     id="metadata4822">
    <rdf:RDF>
      <cc:Work
         rdf:about="">
        <dc:format>image/svg+xml</dc:format>
        <dc:type
           rdf:resource="http://purl.org/dc/dcmitype/StillImage" />
        <dc:title></dc:title>
      </cc:Work>
    </rdf:RDF>
  </metadata>
  <g
     inkscape:label="Layer 1"
     inkscape:groupmode="layer"
     id="layer1"
     transform="translate(0,-772)">
    <ellipse
       style="fill:#fad16b;fill-opacity:1;stroke-width:0.41067943"
       id="path139-7"
       cx="18.405354"
       cy="785.79993"
       rx="5.3564596"
       ry="5.2205033"
       inkscape:export-xdpi="96"
       inkscape:export-ydpi="96" />
    <path
       inkscape:connector-curvature="0"
       style="fill:#fad16b;fill-opacity:1;stroke-width:0.03845264"
       d="m 155.01263,776.99626 c -1.00362,-0.0106 -2.17638,0.0407 -2.54748,0.12753 -0.66637,0.15459 -0.90248,0.49319 -0.67302,0.96735 0.11033,0.22795 0.54234,0.62004 0.88398,0.8029 0.23009,0.12317 0.30186,0.18455 0.36094,0.30574 0.0657,0.13355 0.0687,0.17573 0.0285,0.36412 -0.0631,0.30415 -0.25715,0.6878 -0.59916,1.19025 -0.31078,0.45642 -1.43141,2.03914 -1.48319,2.09426 -0.0295,0.0316 -1.03748,-1.12135 -1.3836,-1.58328 -0.50119,-0.66879 -0.74849,-1.21786 -0.72426,-1.60989 0.0178,-0.29612 0.10098,-0.3974 0.45393,-0.55668 0.30657,-0.13824 0.48069,-0.29814 0.60003,-0.5501 0.20961,-0.44277 0.0438,-0.95947 -0.37704,-1.17592 -0.23665,-0.12179 -1.04099,-0.23279 -2.08867,-0.28801 -0.89913,-0.0471 -3.33876,0.0977 -3.9239,0.23251 -0.76713,0.1775 -1.1195,0.48955 -1.00987,0.89443 0.0889,0.3288 0.68108,0.73096 1.37724,0.93439 0.49502,0.14469 0.7895,0.31799 1.26893,0.74759 1.4106,1.26393 3.29217,4.28932 3.37122,5.42068 0.0177,0.26013 0.0118,0.28481 -0.15152,0.6176 -0.38746,0.78706 -1.00094,1.60319 -3.4964,4.64825 l -0.62647,0.76446 -0.34409,0.11146 c -0.96214,0.31104 -1.59783,0.88892 -1.59783,1.45178 0,0.24511 0.0401,0.3474 0.2166,0.54234 0.28654,0.31702 0.77119,0.47976 1.60098,0.53813 0.89946,0.0627 3.34504,0.0899 3.93518,0.0423 1.00224,-0.0806 1.58187,-0.30781 1.86085,-0.72908 0.36819,-0.5559 -0.0214,-1.23602 -1.00578,-1.75497 -0.2347,-0.12378 -0.35703,-0.21195 -0.38101,-0.27527 -0.15019,-0.39476 0.67891,-1.84577 1.56009,-2.73025 0.30233,-0.30369 0.55643,-0.47563 0.70181,-0.47563 0.19446,0 0.74792,0.50817 1.1719,1.07628 0.2145,0.28758 1.41336,2.20361 1.41333,2.25879 -1e-5,0.0155 -0.1424,0.0784 -0.31685,0.13792 -0.79266,0.27171 -1.4056,0.68097 -1.54646,1.03309 -0.175,0.43754 0.1142,0.84093 0.85581,1.19284 0.47672,0.22624 1.077,0.36074 1.91149,0.42823 0.36279,0.0292 1.4384,0.0214 2.11436,-0.0135 1.15245,-0.0615 1.86592,-0.18915 2.2956,-0.40667 0.3769,-0.19095 0.68038,-0.55856 0.7628,-0.92393 0.12635,-0.56059 -0.58087,-1.06779 -1.68286,-1.20721 -0.42499,-0.0537 -0.65435,-0.1795 -1.04671,-0.57265 -0.39518,-0.39613 -0.69114,-0.78682 -1.4454,-1.90666 -0.31331,-0.46534 -1.04252,-1.53216 -1.62024,-2.37123 -0.5778,-0.83878 -1.05081,-1.5438 -1.05081,-1.56629 0,-0.0224 0.40483,-0.63435 0.89921,-1.3589 0.49435,-0.72445 1.11096,-1.66319 1.36997,-2.08629 1.16281,-1.89884 1.6582,-2.43838 2.24269,-2.44081 0.28255,-8.6e-4 0.77412,-0.13984 1.1639,-0.32799 0.97273,-0.46966 1.07938,-1.24102 0.22619,-1.6404 -0.32333,-0.1513 -0.65028,-0.21063 -1.4414,-0.26221 -0.37012,-0.0235 -0.89774,-0.0591 -1.17273,-0.0789 -0.26082,-0.0176 -0.5766,-0.0286 -0.91113,-0.0318 z"
       id="path990"
       inkscape:export-xdpi="96"
       inkscape:export-ydpi="96" />
    <path
       inkscape:connector-curvature="0"
       style="fill:#ffffff;fill-opacity:1;stroke-width:0.05438026"
       d="m 3.3081467,772.88228 c -1.7159349,-0.0142 -1.8626703,-0.009 -2.0036701,0.0841 -0.3284635,0.21475 -0.3310635,0.24332 -0.3497169,3.10903 -0.017961,2.76698 0.026936,3.6843 0.2013134,4.07885 0.089377,0.20189 0.1337999,0.23591 0.4467924,0.34236 0.4034681,0.13734 0.6196483,0.12065 0.9585139,-0.0771 0.1952877,-0.11342 0.2417475,-0.17707 0.3104061,-0.41786 0.159911,-0.56088 0.32814,-2.07397 0.3818164,-3.43781 0.017607,-0.44865 0.046488,-0.9936 0.064168,-1.2112 l 0.032105,-0.39542 1.6114391,0.005 c 2.101247,0.009 3.021875,-0.10223 3.505216,-0.41783 0.257126,-0.16793 0.36256,-0.40893 0.36256,-0.82772 0,-0.45527 -0.08077,-0.53754 -0.624844,-0.63129 -0.582785,-0.10036 -2.6339415,-0.18627 -4.8960729,-0.20459 z m 28.2951933,0.0136 c -1.148076,1.1e-4 -2.305388,0.0178 -2.594018,0.0543 -0.790909,0.0993 -1.082958,0.35511 -1.005047,0.88081 0.05878,0.39658 0.254346,0.60342 0.659338,0.69784 0.457562,0.10656 1.943382,0.26515 2.760859,0.29434 0.478561,0.0163 1.068246,0.044 1.310587,0.0604 l 0.441261,0.0293 0.03536,0.87981 c 0.136423,3.27464 0.337069,4.26782 0.943385,4.66751 0.214984,0.14178 0.71518,0.13644 0.900657,-0.009 0.358612,-0.28192 0.52967,-1.67606 0.546329,-4.45811 0.009,-1.55655 -0.05222,-2.0069 -0.340971,-2.46087 -0.193415,-0.30503 -0.578499,-0.50533 -1.118048,-0.58235 -0.253095,-0.0354 -1.392294,-0.0545 -2.540329,-0.0543 z m 33.992521,1.72056 c -0.480243,0.0115 -0.917439,0.11443 -1.094057,0.30235 -0.180771,0.19246 -0.27752,0.53606 -0.344059,1.21769 -0.07072,0.72334 -0.0061,1.47352 0.16841,1.9387 0.161225,0.43075 0.514661,0.72667 1.017855,0.85264 0.113202,0.0282 0.413132,0.0447 0.66736,0.0364 0.744886,-0.0235 1.228513,-0.30482 1.463098,-0.85034 0.347729,-0.80831 0.253703,-2.3077 -0.185263,-2.95001 -0.07658,-0.11201 -0.229825,-0.24986 -0.340965,-0.30566 -0.34825,-0.17501 -0.872038,-0.25404 -1.352379,-0.2422 z m 68.173699,0.13796 c -0.66795,0.0236 -0.79234,0.0435 -1.01867,0.16045 -0.32093,0.16515 -0.50883,0.43365 -0.69466,0.99303 -0.24895,0.7496 -0.1892,1.50989 0.17486,2.22829 0.27114,0.535 0.46561,0.71026 0.88637,0.7988 0.10469,0.0211 0.37324,0.0272 0.59761,0.0125 1.47487,-0.0977 1.65152,-0.25509 1.74858,-1.56965 0.0592,-0.8113 8.6e-4,-1.65378 -0.13798,-1.98681 -0.23515,-0.56265 -0.50756,-0.67454 -1.55611,-0.63698 z m -55.573359,0.21581 c -0.200472,-0.005 -0.419663,-0.003 -0.660848,0.005 -0.880402,0.0307 -1.259078,0.10661 -1.795123,0.36012 -0.599042,0.2832 -0.960082,0.69597 -1.034717,1.18234 -0.02463,0.16394 2.04e-4,0.27369 0.120229,0.50852 0.208736,0.40802 0.550367,0.65052 1.349965,0.95924 0.35897,0.13866 0.73204,0.28393 0.829365,0.32342 l 0.176454,0.0719 -0.01331,6.45706 -0.01327,6.45706 -0.190108,0.0451 c -1.606788,0.38989 -1.832645,0.59429 -1.783087,1.61536 0.01714,0.36272 0.0583,0.59752 0.13709,0.77332 0.124508,0.28087 0.233956,0.3378 0.805394,0.42115 0.463182,0.0679 2.820771,0.0706 3.559761,0.004 0.877538,-0.0797 1.871289,-0.25045 2.144829,-0.37151 0.179119,-0.0797 0.259243,-0.15948 0.35367,-0.35441 0.336727,-0.69569 0.09587,-1.6626 -0.489279,-1.96528 -0.08226,-0.0421 -0.399201,-0.10035 -0.704226,-0.12914 -0.808858,-0.0764 -0.906301,-0.20502 -0.518203,-0.68495 0.09677,-0.11957 0.268281,-0.3644 0.380996,-0.54387 0.440851,-0.7016 0.873425,-1.02227 1.373268,-1.01784 0.424816,0.004 0.734273,0.17685 1.23768,0.68978 0.239259,0.24399 0.606363,0.57519 0.815706,0.73563 0.536494,0.41126 0.734701,0.60451 0.734701,0.71869 0,0.13756 -0.275306,0.29044 -0.657688,0.36578 -0.467464,0.0925 -0.511716,0.17964 -0.511716,1.00741 0,1.01629 0.156564,1.22205 1.011385,1.33299 0.534084,0.0698 4.377853,0.0685 4.859114,-7.8e-4 0.434418,-0.0621 0.679529,-0.18602 0.77884,-0.39152 0.09849,-0.20352 0.196405,-1.02765 0.150835,-1.27054 -0.05495,-0.29257 -0.313803,-0.52442 -0.744355,-0.66739 -0.198407,-0.0665 -0.507486,-0.22221 -0.687433,-0.34798 -0.489104,-0.3421 -1.262926,-1.03459 -1.742133,-1.55856 -0.612128,-0.66942 -2.511362,-2.92892 -2.511362,-2.98788 0,-0.027 0.490759,-0.56042 1.090849,-1.1838 2.081529,-2.16275 2.138721,-2.20894 3.005424,-2.46016 0.928444,-0.26908 1.341152,-0.63125 1.341152,-1.17514 0,-1.047 -1.842381,-1.72192 -4.482894,-1.64263 -1.61092,0.0479 -2.74759,0.33119 -3.341553,0.83101 -0.550462,0.46304 -0.4073,0.92684 0.502024,1.62337 0.467004,0.35772 0.49367,0.42779 0.300803,0.80856 -0.352771,0.69659 -1.674719,1.98182 -2.312395,2.24838 -0.168076,0.0708 -0.208809,0.0719 -0.272786,0.006 -0.189955,-0.18997 -0.344051,-2.56135 -0.344852,-5.31634 -6.37e-4,-1.77192 -0.06625,-3.26923 -0.16771,-3.83168 -0.217004,-1.20317 -0.675805,-1.61261 -2.079867,-1.65072 z m 37.343869,0.004 c -3.28488,-0.069 -4.66799,0.41294 -4.66433,1.62344 6.3e-4,0.27054 0.22732,0.71064 0.46848,0.91032 0.59438,0.49241 1.32972,0.65863 2.91639,0.65944 l 1.12859,6.6e-4 v 6.5757 6.57555 l -0.34004,0.031 c -0.18695,0.0163 -0.86573,0.0569 -1.50877,0.0895 -1.9453,0.0987 -2.65482,0.27945 -2.9815,0.75882 -0.11593,0.17038 -0.12617,0.23409 -0.10422,0.62487 0.0328,0.59081 0.15107,0.86405 0.41947,0.97129 0.43375,0.17351 1.68722,0.32798 3.37287,0.41465 1.12092,0.0569 5.38669,0.0236 6.33505,-0.0503 1.6104,-0.12595 2.44542,-0.25734 2.80585,-0.44122 0.27448,-0.1399 0.45408,-0.50764 0.41544,-0.85095 -0.0453,-0.40543 -0.35039,-0.93914 -0.65128,-1.14058 -0.40771,-0.27291 -0.61229,-0.29817 -2.63178,-0.32809 l -1.85606,-0.0271 -0.0277,-6.34391 c -0.0172,-4.12314 -0.0493,-6.59017 -0.0916,-7.04969 -0.13239,-1.48997 -0.38865,-2.26514 -0.86299,-2.60925 -0.43522,-0.31584 -0.69807,-0.36457 -2.1424,-0.39462 z m -97.428203,0.006 c -5.324797,0.0462 -10.533606,2.23922 -14.8783193,6.42738 -1.3211425,1.27351 -2.1767757,2.4466 -2.535475,3.47635 -0.1234073,0.35437 -0.1661148,1.09283 -0.082618,1.42446 0.1310989,0.52068 0.9665427,1.56875 2.3822636,2.98712 1.7614171,1.76458 3.9000117,3.56614 5.2883067,4.45502 0.508763,0.32566 2.126756,1.11451 3.099351,1.51112 1.991071,0.81179 3.263772,1.12129 5.057298,1.22958 2.48977,0.15031 5.251711,-0.12524 7.340903,-0.73313 2.310253,-0.67221 5.271313,-2.39263 7.994625,-4.64492 0.94867,-0.78468 2.656564,-2.51214 3.184294,-3.21975 0.743784,-0.99738 1.113528,-1.83791 1.033948,-2.35258 -0.0877,-0.56804 -0.850278,-1.75492 -1.907453,-2.96858 -0.611959,-0.70284 -2.087383,-2.15525 -2.854625,-2.81064 -1.778742,-1.51961 -3.018059,-2.31687 -4.766935,-3.06575 -2.745558,-1.17558 -5.56639,-1.73977 -8.355567,-1.71568 z m 34.439288,1.56737 c -0.08097,0.0116 -0.128903,0.0385 -0.18681,0.0852 -0.133904,0.10837 -0.134101,0.11045 -0.05592,0.45485 0.04177,0.19027 0.07779,0.45588 0.0794,0.59034 l 0.0026,0.24464 -0.217361,-0.004 c -0.165902,-0.003 -0.378062,-0.0977 -0.894362,-0.39464 -1.144784,-0.65961 -1.721411,-0.81845 -3.129829,-0.86232 -0.716847,-0.0217 -1.039923,-0.009 -1.438915,0.0603 -2.074761,0.36069 -3.717956,1.60788 -4.316177,3.27648 -0.321757,0.89789 -0.423774,2.16062 -0.234287,2.89985 0.293491,1.1444 1.096342,2.05168 2.419255,2.73432 0.858315,0.44299 1.606455,0.69495 3.340814,1.12366 0.857727,0.21214 1.756755,0.45812 1.998021,0.5471 1.043771,0.3848 1.729925,0.83189 2.036552,1.32824 0.14786,0.23943 0.164406,0.31285 0.164406,0.70668 0,0.36973 -0.02272,0.48691 -0.149948,0.74519 -0.270211,0.55013 -0.831786,0.94398 -1.671674,1.17284 -0.568903,0.15472 -1.826205,0.12795 -2.512235,-0.0536 -0.987785,-0.26172 -1.874811,-0.77972 -2.341271,-1.36679 -0.12095,-0.15195 -0.335015,-0.52125 -0.47566,-0.82122 -0.295355,-0.63024 -0.589514,-0.93753 -1.050749,-1.09488 -0.658377,-0.22469 -1.388093,-0.0259 -1.609008,0.43782 -0.280367,0.58873 -0.404749,1.49996 -0.404345,2.96939 4.63e-4,1.30188 0.09405,2.05398 0.313699,2.53405 0.137872,0.30102 0.336067,0.47075 0.729915,0.62478 0.472207,0.18456 1.136083,0.1038 1.494314,-0.18215 l 0.153213,-0.12192 -0.0691,-0.47244 c -0.07617,-0.52689 -0.02546,-0.7508 0.166105,-0.7508 0.05756,2e-5 0.294225,0.15313 0.524571,0.34012 1.015366,0.82427 1.181195,0.90842 2.280338,1.15743 0.590581,0.1337 2.262978,0.169 2.938128,0.0612 2.030609,-0.32213 3.726978,-1.37231 4.454101,-2.75613 0.716869,-1.36407 0.66272,-3.93977 -0.10822,-5.17196 -0.429481,-0.68639 -1.094918,-1.2388 -2.056676,-1.70691 -0.811627,-0.39485 -1.424503,-0.60917 -3.133784,-1.09573 -2.204198,-0.62734 -3.199654,-1.04213 -3.701737,-1.54164 -0.416513,-0.41437 -0.452469,-0.81525 -0.12596,-1.41575 0.280546,-0.51578 0.839538,-0.85045 1.637887,-0.98004 0.970457,-0.15757 2.413656,0.23628 3.489234,0.95131 0.202492,0.13464 0.647478,0.50535 0.988989,0.82448 1.167707,1.09107 1.499777,1.21101 2.10225,0.75795 0.405164,-0.30446 0.58739,-0.56537 0.747562,-1.07151 0.327684,-1.03509 0.313076,-2.68679 -0.03059,-3.60709 -0.250794,-0.67047 -0.926427,-1.11436 -1.762223,-1.15823 -0.187585,-0.009 -0.30158,-0.0116 -0.382624,0 z m -34.193846,2.18098 c 0.50799,-0.016 1.012484,6.6e-4 1.375616,0.0568 2.991492,0.46202 5.068634,2.5051 5.747115,5.65313 0.172783,0.8018 0.174789,2.43706 0.0042,3.20131 -0.316943,1.41827 -0.90046,2.57207 -1.772659,3.50611 -0.864411,0.92554 -1.882732,1.49852 -3.327951,1.87358 -0.817841,0.2123 -0.920664,0.22711 -1.765438,0.24461 -1.085818,0.0219 -1.850237,-0.10762 -2.950159,-0.50295 -2.147601,-0.77144 -3.900958,-2.58525 -4.572822,-4.72981 -0.553022,-1.76542 -0.418211,-3.63344 0.374577,-5.1866 1.010662,-1.97974 3.046589,-3.45222 5.48964,-3.96962 0.378309,-0.0806 0.890096,-0.13036 1.398079,-0.14685 z m -6.986369,0.1685 c 0.01622,0.0155 -0.39015,0.67569 -0.903177,1.46623 -0.998256,1.53803 -1.331368,2.16722 -1.556088,2.94367 -0.249973,0.86373 -0.3157,1.45834 -0.283946,2.55242 0.03879,1.33804 0.247674,2.28288 0.758799,3.42978 0.22461,0.50395 0.25584,0.55425 1.145399,1.86166 0.289862,0.42604 0.526995,0.82395 0.526995,0.88405 0,0.22989 -0.272707,0.1154 -2.066237,-0.86801 -1.151314,-0.63137 -1.613545,-0.95255 -2.8771624,-2.00286 -0.9908867,-0.82351 -1.6509868,-1.47908 -2.6557921,-2.63648 -0.7439686,-0.85693 -0.8314584,-0.97796 -0.7668018,-1.05963 0.040113,-0.0504 0.5573307,-0.63116 1.1494118,-1.28973 1.8703287,-2.08029 3.0451055,-3.04274 5.0685305,-4.15248 0.771476,-0.42316 2.412766,-1.17586 2.460069,-1.12855 z m 13.708044,0.0961 c 0.03277,-0.009 0.08696,-0.005 0.173255,0.006 0.907441,0.12181 4.092535,2.38044 6.68877,4.74369 1.028008,0.93572 1.740655,1.79289 1.740655,2.09347 0,0.71537 -5.167183,5.06018 -7.269576,6.11288 -0.388438,0.19447 -0.670563,0.25029 -0.670563,0.13329 0,-0.0734 0.300078,-0.66848 0.625649,-1.24345 0.709092,-1.25203 1.104274,-2.22122 1.345134,-3.29976 0.101389,-0.45402 0.119479,-0.70418 0.12112,-1.67571 0.0024,-1.30789 -0.07956,-1.82612 -0.466024,-2.94686 -0.380127,-1.10245 -0.754705,-1.74293 -1.833627,-3.13468 -0.274344,-0.35391 -0.49891,-0.68106 -0.49891,-0.72747 0,-0.0328 0.01145,-0.0534 0.04417,-0.0612 z m 107.352686,1.30865 c -0.70113,-0.0104 -1.44891,0.0193 -1.95235,0.0967 -1.94013,0.2947 -2.71709,1.06019 -2.19378,2.16086 0.13549,0.2849 0.35816,0.47765 0.78046,0.67374 0.44095,0.20481 0.99265,0.30501 2.28363,0.41646 l 1.08758,0.0952 0.0128,3.70644 0.0136,3.70731 -0.3401,0.0308 c -0.18712,0.0163 -0.79343,0.056 -1.34669,0.087 -1.84142,0.10348 -2.63298,0.31881 -3.08978,0.83898 -0.0889,0.10088 -0.19111,0.27467 -0.22782,0.38592 -0.0835,0.2558 -0.0291,0.77032 0.098,0.91266 0.27194,0.30446 1.37891,0.53411 3.16516,0.65625 0.68442,0.0464 4.28087,-0.0232 5.22089,-0.10192 2.38087,-0.19865 4.05939,-0.51359 4.5729,-0.8591 0.17644,-0.11861 0.18612,-0.14308 0.20129,-0.48849 0.0402,-0.92359 -0.45552,-1.12521 -3.23891,-1.31703 -0.68006,-0.0468 -1.36177,-0.0981 -1.51524,-0.11391 l -0.27911,-0.0292 -0.0348,-1.45179 c -0.11369,-4.59999 -0.14831,-5.70975 -0.19893,-6.3727 -0.14192,-1.85597 -0.51154,-2.64714 -1.34595,-2.88112 -0.31805,-0.0891 -0.97289,-0.14161 -1.67395,-0.15256 z m -29.77269,0.0283 c -1.84413,-0.004 -2.815365,0.54299 -2.822655,1.59059 -0.005,0.85646 0.564585,1.45658 1.515255,1.59371 0.85195,0.12314 0.87227,0.18849 0.87026,2.75699 -8.5e-4,2.02891 -0.0322,2.27519 -0.36577,2.90032 -0.21025,0.39446 -0.91357,1.15209 -1.36921,1.47512 -1.114555,0.79031 -2.223825,0.93267 -2.950135,0.37861 -0.23727,-0.18096 -0.31897,-0.34958 -0.42035,-0.86952 -0.15805,-0.81089 -0.20223,-1.6844 -0.2502,-4.91765 -0.0297,-2.00385 -0.0719,-3.3486 -0.10991,-3.53254 -0.11942,-0.57597 -0.303018,-0.77197 -0.961773,-1.0235 -1.057569,-0.4038 -1.991387,-0.4503 -2.638892,-0.13151 -0.632651,0.31133 -1.205909,0.97944 -1.310697,1.52719 -0.09225,0.48375 0.208763,0.90353 0.86873,1.2087 0.798869,0.36961 0.828639,0.46244 0.891932,2.82189 0.126655,4.72287 0.284085,5.67772 1.108495,6.72413 0.739268,0.9383 1.894085,1.54521 3.239775,1.70281 v 6.8e-4 c 0.52433,0.0607 0.60887,0.0596 1.18228,-0.003 0.85405,-0.0959 1.451745,-0.31733 2.541845,-0.94343 0.70647,-0.40557 0.92961,-0.39941 1.14787,0.0309 0.11038,0.21784 0.18986,0.29639 0.39379,0.39059 0.23807,0.11018 0.33085,0.11698 1.39653,0.11002 1.24288,-0.009 2.06528,-0.10223 2.4055,-0.27515 0.44076,-0.22412 0.58597,-0.91724 0.30877,-1.47343 -0.1445,-0.29004 -0.38477,-0.52474 -1.00021,-0.97623 -0.21197,-0.15532 -0.40262,-0.34925 -0.47806,-0.486 -0.27471,-0.49827 -0.29077,-0.71235 -0.34007,-4.53032 -0.0537,-4.17456 -0.0988,-4.80813 -0.37381,-5.25543 -0.31876,-0.5185 -1.17285,-0.79203 -2.47929,-0.79489 z m -39.523151,0.0236 c -0.684668,0.0106 -1.174399,0.0776 -1.61381,0.21268 -0.689312,0.21281 -1.121739,0.8427 -1.12539,1.63866 -0.0032,0.6811 0.300271,1.04293 0.988164,1.17832 0.447529,0.0876 1.555332,0.16637 2.383874,0.16764 l 0.720387,6.5e-4 v 3.90861 3.9079 l -1.672461,0.0318 c -1.610327,0.03 -2.394823,0.10244 -2.657413,0.24383 -0.588083,0.31684 -0.83068,1.70673 -0.38573,2.21135 0.109471,0.12418 0.181754,0.1427 0.786795,0.19654 0.366213,0.0323 1.221988,0.079 1.902606,0.10036 1.839801,0.0605 5.963359,0.0633 7.328049,0.005 2.258255,-0.0978 2.69178,-0.22314 3.075353,-0.89188 0.279501,-0.4874 0.17763,-0.89868 -0.298416,-1.20322 -0.627168,-0.40118 -1.523712,-0.56725 -3.510847,-0.6513 -0.40371,-0.0163 -0.874772,-0.0445 -1.046781,-0.0614 l -0.312742,-0.0308 v -3.16827 c 0,-1.74248 -0.02471,-3.66684 -0.05527,-4.27689 -0.06582,-1.30489 -0.188651,-2.45197 -0.283978,-2.65015 -0.2258,-0.46956 -1.56132,-0.80068 -3.466664,-0.86066 -0.276797,-0.009 -0.526542,-0.0115 -0.754795,-0.009 z m -28.381076,10.67461 c -0.290342,-0.0308 -0.602649,0.0878 -0.8077,0.37136 -0.371091,0.51236 -0.525062,1.42676 -0.589579,3.50841 -0.02564,0.84733 -0.05486,1.54725 -0.06577,1.55531 -0.04397,0.0354 -2.493487,0.14076 -3.270944,0.14038 -1.022812,-6.4e-4 -1.260636,0.049 -1.582565,0.33286 -0.3227,0.28407 -0.467092,0.5944 -0.466832,1.00259 4.55e-4,0.54787 0.26453,0.83953 0.813335,0.89924 0.478312,0.0519 1.68388,0.0499 3.589406,-0.005 2.450936,-0.0724 2.526306,-0.081 2.784228,-0.31343 0.321059,-0.29026 0.418181,-0.68172 0.489185,-1.97004 0.06236,-1.14873 0.02643,-3.55392 -0.06485,-4.28809 -0.03028,-0.247 -0.09889,-0.56383 -0.150704,-0.70358 -0.117921,-0.31745 -0.38651,-0.4984 -0.677078,-0.52933 z m -32.6906828,0.13743 c -0.293424,-0.005 -0.5878973,0.0461 -0.7090611,0.1605 -0.2586111,0.24287 -0.3161978,0.79009 -0.4122968,3.91895 -0.080579,2.62381 -0.031543,2.98497 0.4475901,3.30233 l 0.2253967,0.15007 1.6627578,0.0322 c 0.9145053,0.0172 2.3436546,0.0261 3.1755595,0.0171 l 1.5119696,-0.016 0.299189,-0.22537 c 0.727589,-0.54939 0.682033,-1.02999 -0.133953,-1.40616 -0.658089,-0.3033 -1.6475621,-0.48021 -3.8789997,-0.69465 l -0.960935,-0.0918 -0.032105,-0.43957 c -0.017243,-0.24184 -0.056358,-1.0031 -0.087422,-1.69099 -0.093756,-2.07627 -0.1679368,-2.59441 -0.4034609,-2.82979 C 2.6498405,791.234 2.3574753,791.1704 2.0640566,791.16475 Z"
       id="path993"
       inkscape:export-xdpi="96"
       inkscape:export-ydpi="96" />
  </g>
</svg>
